<svg id="Layer_1" data-name="Layer 1" xmlns="http://www.w3.org/2000/svg" viewBox="0 0 57 142"><defs><style>.cls-1{fill:#f5df4d;}.cls-2{fill:none;stroke:#000;stroke-linecap:round;stroke-miterlimit:10;stroke-width:2px;}.cls-3{fill:#231f20;}</style></defs><rect class="cls-1" x="20.16" y="114" width="16.69" height="21"/><path d="M82.25,118v19H67.56V118H82.25m2-2H65.56v23H84.25V116Z" transform="translate(-46.41 -3)"/><rect class="cls-1" x="20.16" y="15" width="16.69" height="16" rx="6"/><path d="M77.25,19a5,5,0,0,1,5,5v4a5,5,0,0,1-5,5H72.56a5,5,0,0,1-5-5V24a5,5,0,0,1,5-5h4.69m0-2H72.56a7,7,0,0,0-7,7v4a7,7,0,0,0,7,7h4.69a7,7,0,0,0,7-7V24a7,7,0,0,0-7-7Z" transform="translate(-46.41 -3)"/><rect class="cls-1" x="12" y="24" width="33" height="91" rx="4.91"/><path d="M86.49,28a3.92,3.92,0,0,1,3.92,3.91v81.18A3.92,3.92,0,0,1,86.49,117H63.32a3.92,3.92,0,0,1-3.91-3.91V31.91A3.92,3.92,0,0,1,63.32,28H86.49m0-2H63.32a5.93,5.93,0,0,0-5.91,5.91v81.18A5.93,5.93,0,0,0,63.32,119H86.49a5.94,5.94,0,0,0,5.92-5.91V31.91A5.94,5.94,0,0,0,86.49,26Z" transform="translate(-46.41 -3)"/><rect class="cls-1" x="4.74" y="132" width="47.52" height="9" rx="3.5"/><path d="M95.17,136a2.5,2.5,0,0,1,2.5,2.5v2a2.5,2.5,0,0,1-2.5,2.5H54.64a2.5,2.5,0,0,1-2.5-2.5v-2a2.5,2.5,0,0,1,2.5-2.5H95.17m0-2H54.64a4.51,4.51,0,0,0-4.5,4.5v2a4.51,4.51,0,0,0,4.5,4.5H95.17a4.51,4.51,0,0,0,4.5-4.5v-2a4.51,4.51,0,0,0-4.5-4.5Z" transform="translate(-46.41 -3)"/><rect class="cls-1" x="1" y="107" width="55" height="9" rx="3.5"/><path d="M98.91,111a2.51,2.51,0,0,1,2.5,2.5v2a2.51,2.51,0,0,1-2.5,2.5h-48a2.5,2.5,0,0,1-2.5-2.5v-2a2.5,2.5,0,0,1,2.5-2.5h48m0-2h-48a4.51,4.51,0,0,0-4.5,4.5v2a4.51,4.51,0,0,0,4.5,4.5h48a4.52,4.52,0,0,0,4.5-4.5v-2a4.52,4.52,0,0,0-4.5-4.5Z" transform="translate(-46.41 -3)"/><line class="cls-2" x1="28.5" y1="14" x2="28.5" y2="1"/><line class="cls-3" x1="28.5" y1="14" x2="28.5" y2="1"/><line class="cls-2" x1="12.59" y1="44" x2="20.59" y2="44"/><line class="cls-3" x1="12.59" y1="44" x2="20.59" y2="44"/><line class="cls-2" x1="12.59" y1="52" x2="25.59" y2="52"/><line class="cls-3" x1="12.59" y1="52" x2="25.59" y2="52"/><line class="cls-2" x1="12.59" y1="60" x2="20.59" y2="60"/><line class="cls-3" x1="12.59" y1="60" x2="20.59" y2="60"/><line class="cls-2" x1="12.59" y1="68" x2="25.59" y2="68"/><line class="cls-3" x1="12.59" y1="68" x2="25.59" y2="68"/><line class="cls-2" x1="12.59" y1="76" x2="20.59" y2="76"/><line class="cls-3" x1="12.59" y1="76" x2="20.59" y2="76"/><line class="cls-2" x1="12.59" y1="84" x2="25.59" y2="84"/><line class="cls-3" x1="12.59" y1="84" x2="25.59" y2="84"/></svg>