<svg id="Layer_1" data-name="Layer 1" xmlns="http://www.w3.org/2000/svg" viewBox="0 0 107.93 123.73"><defs><style>.cls-1{fill:#f5df4d;}.cls-2{fill:none;stroke:#000;stroke-linecap:round;stroke-miterlimit:10;stroke-width:2px;}.cls-3{fill:#231f20;}</style></defs><rect class="cls-1" x="30.7" y="107.06" width="21" height="16.69" transform="translate(-86.87 54.74) rotate(-50.52)"/><path d="M41.58,103.4l11.33,9.34L40.83,127.41,29.5,118.07,41.58,103.4m-.27-2.81L26.68,118.34,41.1,130.22l14.63-17.75L41.31,100.59Z" transform="translate(-12.81 -19.09)"/><path class="cls-1" d="M106.27,46.09a6,6,0,0,1-3.8-1.36l-3.62-3A6,6,0,0,1,98,33.31l2.55-3.09A6,6,0,0,1,109,29.4l3.62,3a6,6,0,0,1,.82,8.45l-2.55,3.09A6,6,0,0,1,106.27,46.09Z" transform="translate(-12.81 -19.09)"/><path d="M105.22,29h0a5,5,0,0,1,3.17,1.13l3.62,3a5,5,0,0,1,.68,7l-2.55,3.09a5,5,0,0,1-7,.68l-3.61-3a5,5,0,0,1-.68-7l2.54-3.09A5,5,0,0,1,105.22,29m0-2a7,7,0,0,0-5.41,2.54l-2.55,3.09a7,7,0,0,0,.95,9.85l3.62,3a7,7,0,0,0,9.86-1l2.54-3.08a7,7,0,0,0-1-9.86l-3.62-3A7,7,0,0,0,105.22,27Z" transform="translate(-12.81 -19.09)"/><path class="cls-1" d="M59.3,116.55a4.89,4.89,0,0,1-3.11-1.11L38.3,100.71a4.92,4.92,0,0,1-.66-6.92L89.25,31.14a4.94,4.94,0,0,1,6.92-.67l17.88,14.74a4.92,4.92,0,0,1,.67,6.91L63.1,114.77A4.86,4.86,0,0,1,59.3,116.55Z" transform="translate(-12.81 -19.09)"/><path d="M93.05,30.36h0a3.84,3.84,0,0,1,2.48.88L113.42,46a3.93,3.93,0,0,1,.53,5.51L62.33,114.14a3.95,3.95,0,0,1-5.51.53L38.94,99.93a3.91,3.91,0,0,1-.53-5.51L90,31.78a3.91,3.91,0,0,1,3-1.42m0-2a5.9,5.9,0,0,0-4.57,2.14L36.86,93.15a6,6,0,0,0,.81,8.33l17.88,14.73a5.85,5.85,0,0,0,3.75,1.34,5.94,5.94,0,0,0,4.58-2.14l51.61-62.65a5.92,5.92,0,0,0-.8-8.32L96.8,29.7a5.87,5.87,0,0,0-3.75-1.34Z" transform="translate(-12.81 -19.09)"/><path class="cls-1" d="M48.57,141.82a3.46,3.46,0,0,1-2.22-.8L15.07,115.26a3.5,3.5,0,0,1-.47-4.93l1.27-1.54a3.52,3.52,0,0,1,4.93-.48l31.27,25.77a3.49,3.49,0,0,1,.48,4.92l-1.27,1.55A3.49,3.49,0,0,1,48.57,141.82Z" transform="translate(-12.81 -19.09)"/><path d="M18.58,108.52h0a2.43,2.43,0,0,1,1.58.56l31.28,25.77a2.51,2.51,0,0,1,.34,3.52l-1.27,1.54a2.5,2.5,0,0,1-1.94.91,2.44,2.44,0,0,1-1.58-.57L15.71,114.48a2.5,2.5,0,0,1-.34-3.52l1.27-1.54a2.52,2.52,0,0,1,1.94-.9m0-2a4.49,4.49,0,0,0-3.48,1.63l-1.27,1.54a4.51,4.51,0,0,0,.61,6.34L45.72,141.8a4.5,4.5,0,0,0,6.33-.62l1.27-1.54a4.5,4.5,0,0,0-.61-6.33L21.43,107.54a4.43,4.43,0,0,0-2.85-1Z" transform="translate(-12.81 -19.09)"/><path class="cls-1" d="M67.35,124.9a3.5,3.5,0,0,1-2.22-.79l-37-30.53a3.49,3.49,0,0,1-.48-4.92l1.27-1.55a3.51,3.51,0,0,1,4.93-.47l37.05,30.52a3.51,3.51,0,0,1,.47,4.93l-1.27,1.54A3.49,3.49,0,0,1,67.35,124.9Z" transform="translate(-12.81 -19.09)"/><path d="M31.59,86.84h0a2.44,2.44,0,0,1,1.58.57l37.05,30.52a2.5,2.5,0,0,1,.34,3.52L69.29,123a2.5,2.5,0,0,1-1.94.91,2.45,2.45,0,0,1-1.58-.57l-37-30.52a2.52,2.52,0,0,1-.34-3.52l1.27-1.54a2.5,2.5,0,0,1,1.94-.91m0-2a4.5,4.5,0,0,0-3.48,1.64L26.84,88a4.52,4.52,0,0,0,.61,6.34L64.5,124.88a4.51,4.51,0,0,0,6.33-.61l1.27-1.55a4.5,4.5,0,0,0-.61-6.33l-37-30.52a4.49,4.49,0,0,0-2.86-1Z" transform="translate(-12.81 -19.09)"/><line class="cls-2" x1="98.66" y1="11.03" x2="106.93" y2="1"/><line class="cls-3" x1="98.66" y1="11.03" x2="106.93" y2="1"/><line class="cls-2" x1="67.31" y1="24.07" x2="73.49" y2="29.16"/><line class="cls-3" x1="67.31" y1="24.07" x2="73.49" y2="29.16"/><line class="cls-2" x1="62.22" y1="30.25" x2="72.26" y2="38.51"/><line class="cls-3" x1="62.22" y1="30.25" x2="72.26" y2="38.51"/><line class="cls-2" x1="57.14" y1="36.42" x2="63.31" y2="41.51"/><line class="cls-3" x1="57.14" y1="36.42" x2="63.31" y2="41.51"/><line class="cls-2" x1="52.05" y1="42.6" x2="62.08" y2="50.86"/><line class="cls-3" x1="52.05" y1="42.6" x2="62.08" y2="50.86"/><line class="cls-2" x1="46.96" y1="48.77" x2="53.14" y2="53.86"/><line class="cls-3" x1="46.96" y1="48.77" x2="53.14" y2="53.86"/><line class="cls-2" x1="41.88" y1="54.94" x2="51.91" y2="63.21"/><line class="cls-3" x1="41.88" y1="54.94" x2="51.91" y2="63.21"/></svg>